<svg xmlns="http://www.w3.org/2000/svg" xml:space="preserve" id="Layer_1" x="0" y="0" style="enable-background:new 0 0 400 400" version="1.1" viewBox="0 0 400 400"><style>.st4{fill:#fff}.st5{font-family:&quot;Futura-Medium&quot;}.st6{font-size:36.9664px}.st7{fill:none;stroke:#000;stroke-width:.75}</style><linearGradient id="ellipse5801_00000183945273585744273560000007784661832679458451_" x1="817.848" x2="900.128" y1="372.963" y2="372.963" gradientTransform="matrix(.6967 0 0 .8099 -446.195 48.337)" gradientUnits="userSpaceOnUse"><stop offset="0" style="stop-color:#005bc0"/><stop offset="1" style="stop-color:#78c0ff"/></linearGradient><linearGradient id="ellipse5801_00000181806593216682153130000004407581301480173708_" x1="814.741" x2="903.312" y1="372.963" y2="372.963" gradientTransform="matrix(.6967 0 0 .8099 -446.195 48.337)" gradientUnits="userSpaceOnUse"><stop offset="0" style="stop-color:#004a88"/><stop offset="1" style="stop-color:#4092f1"/></linearGradient><ellipse id="ellipse5801" cx="152.3" cy="350.4" rx="28.7" ry="19.1" style="fill:url(#ellipse5801_00000183945273585744273560000007784661832679458451_);stroke:url(#ellipse5801_00000181806593216682153130000004407581301480173708_);stroke-width:6.6569"/><linearGradient id="ellipse5787_00000116219602028731522870000012829013330058819501_" x1="284.412" x2="366.68" y1="489.751" y2="489.751" gradientTransform="matrix(.9311 0 0 1.0443 -127.516 -208.447)" gradientUnits="userSpaceOnUse"><stop offset="0" style="stop-color:#005bc0"/><stop offset="1" style="stop-color:#78c0ff"/></linearGradient><linearGradient id="ellipse5787_00000108298611705381777660000007788635405965341852_" x1="281.32" x2="369.876" y1="489.751" y2="489.751" gradientTransform="matrix(.9311 0 0 1.0443 -127.516 -208.447)" gradientUnits="userSpaceOnUse"><stop offset="0" style="stop-color:#004a88"/><stop offset="1" style="stop-color:#4092f1"/></linearGradient><ellipse id="ellipse5787" cx="175.6" cy="303" rx="38.3" ry="24.6" style="fill:url(#ellipse5787_00000116219602028731522870000012829013330058819501_);stroke:url(#ellipse5787_00000108298611705381777660000007788635405965341852_);stroke-width:6.6569"/><linearGradient id="path8335_00000060712608514152542940000001040679614392510366_" x1="-518.667" x2="-318.018" y1="540.381" y2="540.381" gradientTransform="matrix(1.6229 -.2918 .2862 1.6551 722.145 -867.575)" gradientUnits="userSpaceOnUse"><stop offset="0" style="stop-color:#005bc0"/><stop offset="1" style="stop-color:#78c0ff"/></linearGradient><linearGradient id="path8335_00000078016190875171059790000001409873207491137163_" x1="-425.657" x2="-340.436" y1="540.381" y2="540.381" gradientTransform="matrix(1.6229 -.2918 .2862 1.6551 722.145 -867.575)" gradientUnits="userSpaceOnUse"><stop offset="0" style="stop-color:#004a88"/><stop offset="1" style="stop-color:#4092f1"/></linearGradient><path id="path8335" d="M295.4 192.9s8.4 1.7 12.8 0c8.2-3.2 12.5-5.1 25.4-14 4.8-3.3-41.5-23.5-38.3-25.8 3.1-2.2 41.5 24.2 44.6 21.5 7.3-6.4 18.4-18.6 20.1-32.6.7-5.6-19.8-5.1-19.8-9.2 0-3.4 20.9 6.1 20 1.5-1.1-6-2.9-24-5.3-31.6-2.4-7.7-5.4-15.8-8.8-23.6-3.5-7.8-18.5-21.9-24.4-29.1-3-3.6 3.4 34.1 1.1 32.1-2.3-1.9-2.7-34.2-8.5-37.4-11.9-15.7-35.1-22-43.3-25.5s1.9 21.9.2 21.3c-1.8-.6-4.1-19.4-13.6-23.6s-25.9-3.7-30.5-4.3c-4.7-.6 4.6 24.2 2.7 21.6-2.7-3.5-7-21.7-11.2-21.9-16.9-.7-32.5-1.3-37.8.7-3.7 1.4 4 3.9 11.7 20.9 3.8 8.4 16.8 47 14.2 47.2-3.5.3-9.9-39.6-20.5-51.9-14.9-17.4-10-16.1-17.3-15-10.7 1.5-22.5 6.2-30.9 12.1-3.9 2.7 11.9 21.3 10.1 24.1-3 1.4-12.4-22.7-18.5-19.4-3.9 2.2-27.3 19.1-33.4 25.4-4.1 4.3 21.6 24.1 20.3 25.7-2.8 3.4-21.9-21.9-25.1-18.6-3.1 3.3-5.4 5.9-6.4 7.3-9.6 13.3-14 19.9-21.1 30.6-1 1.5 17.2 9.6 16.4 11.7-.6 1.6-17.6-8.5-18.4-6.7-.9 1.8-7.5 18-8.5 20.2-3.9 9.4 40.2 24 39 26.8-1.4 3.2-40.9-22.4-42.7-17-1.8 5.3-3.3 10.6-4.7 15.8-.6 2.6-5.1 21.9-5.6 24.5s22.8 8.7 22.5 11.3c-.4 2.6-22-7.5-22.3-4.9-.2 2.6.6 9.8.5 12.5-.5 10.7 3.6 28 7.8 39.3 2.1 5.6 9.1-7.8 11-6.3C62 231 50 239.3 52 242.3c1.9 3 5.6 5.8 9.8 8.5 5.9 3.7 12.8 6.9 17 8.7 3.6 1.5 38.9-16.1 42.7-15.4 3.9.7-43.1 15.7-34.7 18.8 7.7 2.7 22.6-2.5 30.8-3.6 8.2-1.2 16.3-2.1 24.3-1.2s15.9 3.6 23.7 6.8c7.9 3.2 15.8 6.8 24 9.5 16.3 5.3 33.4 6.8 50.1 6.2 16.7-.6 47.4-9.8 66.7-25 3.4-2-41.9-12.5-40.8-13.9 2.6-3.1 41.1 12.4 44.9 8.3 6.5-7 12.7-14.9 13.9-21.6 1.2-6.7-1.2-12.6-5.6-17.8-4.3-5.2-10.5-9.8-16.9-13.7s-13-7.3-19.2-9.9c-6.3-2.6-12.3-4.5-17.5-5.6-10.5-2.2-31.7-2.6-35.4-3-3.6-.3-12-2-18.1-3.3-3.4-1.4-7-3.3-9.6-4.9-2.6-1.5 6.6 3 6.6 3" style="fill:url(#path8335_00000060712608514152542940000001040679614392510366_);stroke:url(#path8335_00000078016190875171059790000001409873207491137163_);stroke-width:6.6569"/><linearGradient id="ellipse2180_00000055676632465964325550000010901414362973568940_" x1="1902.078" x2="1984.429" y1="168.218" y2="168.218" gradientTransform="matrix(.4376 0 0 .5295 -661.514 286.628)" gradientUnits="userSpaceOnUse"><stop offset="0" style="stop-color:#005bc0"/><stop offset="1" style="stop-color:#78c0ff"/></linearGradient><linearGradient id="ellipse2180_00000028305418081204657660000005724746832580606865_" x1="1898.624" x2="1987.879" y1="168.218" y2="168.218" gradientTransform="matrix(.4376 0 0 .5295 -661.514 286.628)" gradientUnits="userSpaceOnUse"><stop offset="0" style="stop-color:#004a88"/><stop offset="1" style="stop-color:#4092f1"/></linearGradient><ellipse id="ellipse2180" cx="188.9" cy="375.7" rx="18" ry="12.5" style="fill:url(#ellipse2180_00000055676632465964325550000010901414362973568940_);stroke:url(#ellipse2180_00000028305418081204657660000005724746832580606865_);stroke-width:6.6569"/><text class="st4 st5 st6" transform="matrix(.9557 0 0 1 334.541 124.327)"> </text><text class="st7 st5 st6" transform="matrix(.9557 0 0 1 334.541 124.327)"> </text><text class="st4 st5 st6" transform="matrix(.9557 0 0 1 241.01 166.377)"> </text><text class="st7 st5 st6" transform="matrix(.9557 0 0 1 241.01 166.377)"> </text></svg>